<svg width="24" height="24" viewBox="0 0 24 24" fill="none"
  xmlns="http://www.w3.org/2000/svg">
  <path d="M18.8566 20.2C19.4089 20.2 19.8566 19.7523 19.8566 19.2C19.8566 18.6478 19.4089 18.2 18.8566 18.2V20.2ZM5.14269 18.2C4.59041 18.2 4.14269 18.6478 4.14269 19.2C4.14269 19.7523 4.59041 20.2 5.14269 20.2V18.2ZM2.3999 13.9018C1.84762 13.9018 1.3999 14.3495 1.3999 14.9018C1.3999 15.4541 1.84762 15.9018 2.3999 15.9018V13.9018ZM21.5994 15.9018C22.1517 15.9018 22.5994 15.4541 22.5994 14.9018C22.5994 14.3495 22.1517 13.9018 21.5994 13.9018V15.9018ZM4.24514 12.0482C4.70467 12.3546 5.32554 12.2304 5.63189 11.7709C5.93825 11.3113 5.81407 10.6905 5.35454 10.3841L4.24514 12.0482ZM3.29745 9.01271C2.83792 8.70636 2.21705 8.83054 1.9107 9.29006C1.60435 9.74959 1.72852 10.3705 2.18805 10.6768L3.29745 9.01271ZM8.10333 7.45949C8.34812 7.95456 8.94789 8.15746 9.44297 7.91267C9.93804 7.66788 10.1409 7.06811 9.89615 6.57304L8.10333 7.45949ZM8.80035 4.35683C8.55557 3.86175 7.95579 3.65886 7.46072 3.90364C6.96564 4.14843 6.76275 4.74821 7.00753 5.24328L8.80035 4.35683ZM13.7906 6.3022C13.4843 6.76173 13.6084 7.3826 14.068 7.68895C14.5275 7.9953 15.1484 7.87113 15.4547 7.4116L13.7906 6.3022ZM16.8261 5.3545C17.1325 4.89498 17.0083 4.27411 16.5488 3.96775C16.0892 3.6614 15.4684 3.78558 15.162 4.2451L16.8261 5.3545ZM21.8021 10.7412C22.2972 10.4964 22.5001 9.89661 22.2553 9.40154C22.0105 8.90646 21.4107 8.70357 20.9156 8.94835L21.8021 10.7412ZM18.6994 10.0442C18.2043 10.2889 18.0015 10.8887 18.2462 11.3838C18.491 11.8789 19.0908 12.0818 19.5859 11.837L18.6994 10.0442ZM18.8566 18.2H5.14269V20.2H18.8566V18.2ZM2.3999 15.9018H21.5994V13.9018H2.3999V15.9018ZM8.19979 14.9018C8.19979 12.8032 9.90105 11.1019 11.9997 11.1019V9.1019C8.79648 9.1019 6.19979 11.6986 6.19979 14.9018H8.19979ZM11.9997 11.1019C14.0983 11.1019 15.7996 12.8032 15.7996 14.9018H17.7996C17.7996 11.6986 15.2029 9.1019 11.9997 9.1019V11.1019ZM5.35454 10.3841L3.29745 9.01271L2.18805 10.6768L4.24514 12.0482L5.35454 10.3841ZM9.89615 6.57304L8.80035 4.35683L7.00753 5.24328L8.10333 7.45949L9.89615 6.57304ZM15.4547 7.4116L16.8261 5.3545L15.162 4.2451L13.7906 6.3022L15.4547 7.4116ZM20.9156 8.94835L18.6994 10.0442L19.5859 11.837L21.8021 10.7412L20.9156 8.94835Z" fill="black"/>
</svg>
